<?xml version="1.0" encoding="UTF-8"?>
<svg id="Calque_2" data-name="Calque 2" xmlns="http://www.w3.org/2000/svg" viewBox="0 0 725.2 685.97">
  <defs>
    <style>
      .cls-1 {
        fill: #7ac1e0;
      }
    </style>
  </defs>
  <g id="Calque_1-2" data-name="Calque 1">
    <path class="cls-1" d="M578.67,685.97c-7.91,0-15.98-.37-24.16-1.1-38.93-3.51-78.21-15.24-110.59-33.03-35.06-19.26-59.82-44.12-71.62-71.91-26.33-62-64.27-62.97-108.21-64.1-28.55-.73-60.92-1.56-93.62-19.64-37.26-20.6-69.35-60.55-98.13-122.16C6.96,234.08-12.91,146.23,7.91,89.21,20.17,55.61,46.66,30.88,93.79,9.04c54.3-25.17,159.71,3.25,268.56,72.38,128.67,81.72,242.43,205.63,320.34,348.91,24.27,44.63,38.3,84.88,41.69,119.62,3.09,31.65-2.58,58.72-16.85,80.45-13.98,21.28-35.6,36.8-64.26,46.12-19.23,6.26-41.22,9.45-64.6,9.45ZM141.41,5.99c-17.69,0-32.88,2.83-45.09,8.49C50.74,35.6,25.21,59.28,13.54,91.26c-20.22,55.41-.41,141.83,64.23,280.23,63.14,135.18,128.66,136.86,186.47,138.34,22.6.58,43.95,1.13,63.24,9.74,21.64,9.66,37.63,28.09,50.34,58.01,22.18,52.24,95.06,93.9,177.23,101.3,67.06,6.04,122.19-13.32,147.47-51.79,28.76-43.77,20.08-110.82-25.1-193.91-77.43-142.4-190.46-265.53-318.29-346.71-53.62-34.05-107.1-58.69-154.66-71.23-23.39-6.17-44.59-9.26-63.06-9.26Z"/>
    <path class="cls-1" d="M535.45,617.37c-6.33,0-12.79-.29-19.33-.88-31.14-2.81-62.56-12.19-88.47-26.42-28.05-15.4-47.86-35.3-57.3-57.53-21.06-49.6-51.42-50.38-86.57-51.28-22.84-.59-48.73-1.25-74.9-15.72-29.8-16.48-55.48-48.44-78.5-97.73-52.3-111.96-68.19-182.24-51.54-227.86,9.81-26.88,31-46.66,68.71-64.13,43.44-20.13,127.77,2.6,214.85,57.9,102.93,65.38,193.95,164.51,256.27,279.13,19.42,35.71,30.64,67.9,33.35,95.69,2.48,25.32-2.06,46.98-13.48,64.36-11.19,17.02-28.48,29.44-51.41,36.9-15.38,5-32.98,7.56-51.68,7.56ZM185.65,73.39c-14.15,0-26.3,2.26-36.07,6.79-36.46,16.89-56.88,35.84-66.22,61.42-16.18,44.33-.33,113.47,51.38,224.18,50.51,108.14,102.93,109.49,149.17,110.68,18.08.46,35.16.9,50.59,7.79,17.31,7.73,30.11,22.48,40.27,46.41,17.75,41.79,76.05,75.12,141.79,81.04,53.65,4.83,97.75-10.65,117.97-41.43,23.01-35.02,16.07-88.66-20.08-155.13-61.94-113.92-152.37-212.42-254.63-277.37-42.89-27.24-85.68-46.95-123.73-56.99-18.71-4.94-35.67-7.4-50.45-7.4Z"/>
    <path class="cls-1" d="M500.88,562.49c-5.07,0-10.23-.23-15.46-.71-24.92-2.24-50.05-9.75-70.78-21.14-22.44-12.32-38.29-28.24-45.84-46.02-16.85-39.68-41.13-40.3-69.25-41.02-18.27-.47-38.99-1-59.92-12.57-23.84-13.18-44.39-38.75-62.8-78.18-41.84-89.57-54.55-145.79-41.23-182.29,7.85-21.5,24.8-37.33,54.97-51.31,34.75-16.11,102.22,2.08,171.88,46.32,82.35,52.3,155.16,131.61,205.02,223.3,15.53,28.57,24.51,54.32,26.68,76.56,1.98,20.26-1.65,37.58-10.79,51.49-8.95,13.62-22.79,23.55-41.13,29.52-12.3,4-26.38,6.05-41.34,6.05ZM221.04,127.31c-11.32,0-21.04,1.81-28.86,5.43-29.17,13.52-45.5,28.67-52.97,49.14-12.94,35.46-.26,90.77,41.11,179.35,40.41,86.51,82.34,87.59,119.34,88.54,14.47.37,28.13.72,40.47,6.23,13.85,6.18,24.09,17.98,32.22,37.13,14.2,33.43,60.84,60.09,113.43,64.83,42.92,3.87,78.2-8.52,94.38-33.14,18.41-28.01,12.85-70.93-16.06-124.1-49.55-91.13-121.9-169.94-203.7-221.9-34.31-21.79-68.54-37.56-98.99-45.59-14.97-3.95-28.54-5.92-40.36-5.92Z"/>
    <path class="cls-1" d="M473.23,518.59c-4.05,0-8.18-.19-12.37-.56-19.93-1.8-40.04-7.8-56.62-16.91-17.95-9.86-30.63-22.59-36.67-36.82-13.48-31.74-32.91-32.24-55.4-32.82-14.62-.38-31.19-.8-47.93-10.06-19.07-10.55-35.51-31-50.24-62.55-33.47-71.66-43.64-116.63-32.99-145.83,6.28-17.2,19.84-29.86,43.97-41.05,27.8-12.89,81.77,1.66,137.5,37.06,65.88,41.84,124.13,105.28,164.01,178.64,12.43,22.85,19.61,43.46,21.35,61.24,1.58,16.21-1.32,30.07-8.63,41.19-7.16,10.89-18.23,18.84-32.9,23.61-9.84,3.2-21.11,4.84-33.07,4.84ZM249.35,170.44c-9.06,0-16.83,1.45-23.09,4.35-23.33,10.81-36.4,22.94-42.38,39.31-10.35,28.37-.21,72.62,32.88,143.48,32.33,69.21,65.87,70.07,95.47,70.83,11.57.3,22.5.58,32.38,4.99,11.08,4.95,19.27,14.38,25.77,29.7,11.36,26.75,48.67,48.08,90.74,51.87,34.33,3.09,62.56-6.82,75.5-26.52,14.73-22.41,10.28-56.74-12.85-99.28-39.64-72.91-97.52-135.95-162.96-177.52-27.45-17.44-54.83-30.05-79.19-36.47-11.97-3.16-22.83-4.74-32.29-4.74Z"/>
    <path class="cls-1" d="M451.1,483.47c-3.24,0-6.55-.15-9.9-.45-15.95-1.44-32.03-6.24-45.3-13.53-14.36-7.89-24.5-18.07-29.34-29.45-10.78-25.39-26.33-25.79-44.32-26.26-11.7-.3-24.95-.64-38.35-8.05-15.26-8.44-28.41-24.8-40.19-50.04-26.78-57.33-34.91-93.31-26.39-116.66,5.02-13.76,15.87-23.89,35.18-32.84,22.24-10.31,65.42,1.33,110,29.65,52.7,33.47,99.3,84.23,131.21,142.91,9.94,18.28,15.69,34.77,17.08,49,1.27,12.97-1.06,24.05-6.9,32.95-5.73,8.72-14.58,15.07-26.32,18.89-7.87,2.56-16.88,3.87-26.46,3.87ZM272,204.95c-7.24,0-13.47,1.16-18.47,3.48-18.67,8.65-29.12,18.35-33.9,31.45-8.28,22.7-.17,58.1,26.31,114.78,25.86,55.37,52.7,56.06,76.38,56.67,9.26.24,18,.46,25.9,3.99,8.86,3.96,15.41,11.51,20.62,23.76,9.09,21.4,38.94,38.46,72.59,41.49,27.47,2.48,50.05-5.45,60.4-21.21,11.78-17.93,8.23-45.39-10.28-79.42-31.71-58.33-78.01-108.76-130.37-142.01-21.96-13.95-43.87-24.04-63.35-29.18-9.58-2.53-18.26-3.79-25.83-3.79Z"/>
    <path class="cls-1" d="M433.4,455.37c-2.59,0-5.24-.12-7.92-.36-12.76-1.15-25.63-4.99-36.24-10.82-11.49-6.31-19.6-14.46-23.47-23.56-8.63-20.31-21.06-20.63-35.46-21-9.36-.24-19.96-.51-30.68-6.44-12.21-6.75-22.73-19.84-32.15-40.03-21.42-45.86-27.93-74.64-21.11-93.33,4.02-11.01,12.7-19.11,28.14-26.27,17.79-8.25,52.34,1.06,88,23.72,42.16,26.78,79.44,67.38,104.97,114.33,7.95,14.63,12.55,27.81,13.66,39.2,1.01,10.37-.84,19.24-5.52,26.36-4.58,6.97-11.67,12.06-21.06,15.11-6.3,2.05-13.51,3.1-21.17,3.1ZM290.12,232.56c-5.8,0-10.77.93-14.78,2.78-14.93,6.92-23.3,14.68-27.12,25.16-6.63,18.16-.14,46.48,21.05,91.83,20.69,44.29,42.16,44.85,61.1,45.33,7.41.19,14.4.37,20.72,3.19,7.09,3.17,12.33,9.21,16.49,19.01,7.27,17.12,31.15,30.77,58.08,33.19,21.97,1.98,40.04-4.36,48.32-16.97,9.42-14.34,6.58-36.31-8.22-63.54-25.37-46.66-62.41-87.01-104.3-113.61-17.57-11.16-35.09-19.23-50.68-23.34-7.66-2.02-14.61-3.03-20.66-3.03Z"/>
    <path class="cls-1" d="M419.24,432.9c-2.07,0-4.19-.1-6.33-.29-10.21-.92-20.5-3.99-28.99-8.66-9.19-5.05-15.68-11.57-18.78-18.85-6.9-16.25-16.85-16.51-28.37-16.8-7.48-.19-15.97-.41-24.54-5.15-9.77-5.4-18.18-15.87-25.72-32.02-17.14-36.69-22.35-59.72-16.89-74.67,3.21-8.81,10.16-15.29,22.51-21.02,14.23-6.6,41.87.85,70.4,18.97,33.73,21.42,63.55,53.91,83.98,91.47,6.36,11.7,10.04,22.25,10.93,31.36.81,8.3-.68,15.39-4.42,21.09-3.67,5.58-9.33,9.65-16.85,12.09-5.04,1.64-10.81,2.48-16.93,2.48ZM304.62,254.64c-4.64,0-8.62.74-11.82,2.23-11.95,5.54-18.64,11.74-21.7,20.13-5.3,14.53-.11,37.18,16.84,73.46,16.55,35.44,33.73,35.88,48.88,36.27,5.93.15,11.52.3,16.58,2.55,5.67,2.53,9.87,7.36,13.2,15.21,5.82,13.69,24.92,24.61,46.46,26.56,17.58,1.58,32.03-3.49,38.66-13.58,7.54-11.47,5.26-29.05-6.58-50.83-20.3-37.33-49.93-69.61-83.44-90.89-14.06-8.93-28.08-15.38-40.54-18.67-6.13-1.62-11.69-2.43-16.53-2.43Z"/>
  </g>
</svg>